<svg xmlns="http://www.w3.org/2000/svg" xmlns:xlink="http://www.w3.org/1999/xlink" width="500" zoomAndPan="magnify" viewBox="0 0 375 374.999991" height="500" preserveAspectRatio="xMidYMid meet" version="1.0"><defs><g/><clipPath id="6a5a12557e"><path d="M 138.707031 121 L 231 121 L 231 187.847656 L 138.707031 187.847656 Z M 138.707031 121 " clip-rule="nonzero"/></clipPath><clipPath id="a90873ce6e"><path d="M 212 146 L 236.207031 146 L 236.207031 164 L 212 164 Z M 212 146 " clip-rule="nonzero"/></clipPath></defs><rect x="-37.5" width="450" fill="#ffffff" y="-37.499999" height="449.999989" fill-opacity="1"/><rect x="-37.5" width="450" fill="#ffffff" y="-37.499999" height="449.999989" fill-opacity="1"/><rect x="-37.5" width="450" fill="#14162a" y="-37.499999" height="449.999989" fill-opacity="1"/><g clip-path="url(#6a5a12557e)"><path fill="#ff9a58" d="M 220.929688 187.738281 L 148.121094 187.738281 C 142.933594 187.738281 138.707031 183.496094 138.707031 178.28125 L 138.707031 131.390625 C 138.707031 126.179688 142.933594 121.933594 148.121094 121.933594 L 220.929688 121.933594 C 226.109375 121.933594 230.324219 126.179688 230.324219 131.390625 L 230.324219 147.550781 L 227.691406 147.550781 L 227.691406 131.390625 C 227.691406 127.636719 224.652344 124.582031 220.929688 124.582031 L 148.121094 124.582031 C 144.386719 124.582031 141.34375 127.636719 141.34375 131.390625 L 141.34375 178.28125 C 141.34375 182.035156 144.386719 185.089844 148.121094 185.089844 L 220.929688 185.089844 C 224.652344 185.089844 227.691406 182.035156 227.691406 178.28125 L 227.691406 162.117188 L 230.324219 162.117188 L 230.324219 178.28125 C 230.324219 183.496094 226.109375 187.738281 220.929688 187.738281 " fill-opacity="1" fill-rule="nonzero"/></g><g clip-path="url(#a90873ce6e)"><path fill="#ff9a58" d="M 216.441406 148.875 C 215.730469 148.875 215.152344 149.460938 215.152344 150.171875 L 215.152344 159.496094 C 215.152344 159.785156 215.246094 160.0625 215.425781 160.289062 C 215.679688 160.621094 216.039062 160.796875 216.441406 160.796875 L 232.296875 160.796875 C 233.003906 160.796875 233.574219 160.210938 233.574219 159.496094 L 233.574219 150.171875 C 233.574219 149.460938 233.003906 148.875 232.296875 148.875 Z M 232.296875 163.441406 L 216.441406 163.441406 C 215.226562 163.441406 214.097656 162.890625 213.351562 161.917969 C 212.816406 161.238281 212.519531 160.375 212.519531 159.496094 L 212.519531 150.171875 C 212.519531 148 214.277344 146.226562 216.441406 146.226562 L 232.296875 146.226562 C 234.453125 146.226562 236.207031 148 236.207031 150.171875 L 236.207031 159.496094 C 236.207031 161.675781 234.453125 163.441406 232.296875 163.441406 " fill-opacity="1" fill-rule="nonzero"/></g><path fill="#ff9a58" d="M 224.359375 153.683594 C 223.734375 153.683594 223.21875 154.203125 223.21875 154.839844 C 223.21875 155.46875 223.734375 155.984375 224.359375 155.984375 C 224.992188 155.984375 225.507812 155.46875 225.507812 154.839844 C 225.507812 154.203125 224.992188 153.683594 224.359375 153.683594 Z M 224.359375 158.632812 C 222.277344 158.632812 220.582031 156.933594 220.582031 154.839844 C 220.582031 152.742188 222.277344 151.035156 224.359375 151.035156 C 226.445312 151.035156 228.144531 152.742188 228.144531 154.839844 C 228.144531 156.933594 226.445312 158.632812 224.359375 158.632812 " fill-opacity="1" fill-rule="nonzero"/><path fill="#ff9a58" d="M 158.074219 124.398438 L 156.726562 122.121094 L 192.835938 100.589844 C 197.304688 97.949219 203.085938 99.4375 205.730469 103.910156 L 216.757812 122.585938 L 214.496094 123.933594 L 203.464844 105.261719 C 201.5625 102.039062 197.390625 100.96875 194.179688 102.871094 L 158.074219 124.398438 " fill-opacity="1" fill-rule="nonzero"/><path fill="#ff9a58" d="M 186.371094 124.398438 L 185.039062 122.113281 L 207.246094 109.050781 L 208.574219 111.335938 L 186.371094 124.398438 " fill-opacity="1" fill-rule="nonzero"/><g fill="#f6eceb" fill-opacity="1"><g transform="translate(135.04215, 238.31102)"><g><path d="M 19.703125 -11.375 C 16.273438 -4.933594 14.382812 -0.628906 10.988281 -0.628906 L 9.832031 -0.628906 L 9.832031 -21.453125 L 11.652344 -23.410156 L 11.652344 -23.621094 L 1.191406 -23.621094 L 1.191406 -23.410156 L 3.007812 -21.453125 L 3.042969 -2.03125 L 1.15625 -0.210938 L 1.15625 0 L 19.914062 0 L 19.914062 -11.375 Z M 19.703125 -11.375 "/></g></g></g><g fill="#f6eceb" fill-opacity="1"><g transform="translate(160.797329, 238.31102)"><g><path d="M 11.863281 0.523438 C 13.367188 0.523438 22.710938 -1.574219 22.710938 -11.828125 C 22.710938 -18.652344 18.023438 -24.113281 11.792969 -24.113281 C 10.253906 -24.113281 0.910156 -22.011719 0.910156 -11.757812 C 0.910156 -4.933594 5.527344 0.523438 11.863281 0.523438 Z M 15.957031 -1.539062 C 13.648438 -0.839844 10.429688 -4.621094 7.945312 -11.164062 C 5.460938 -17.707031 5.808594 -21.453125 7.628906 -22.046875 C 9.796875 -22.675781 12.703125 -19.5625 15.152344 -13.4375 C 17.882812 -6.648438 17.847656 -2.167969 15.957031 -1.539062 Z M 15.957031 -1.539062 "/></g></g></g><g fill="#f6eceb" fill-opacity="1"><g transform="translate(189.106932, 238.31102)"><g><path d="M 7.035156 -23.621094 L 7.035156 -23.410156 L 8.539062 -19.175781 L 0.246094 -0.210938 L 0.246094 0 L 9.203125 0 L 9.203125 -0.210938 C 7.628906 -1.996094 6.753906 -4.863281 6.683594 -8.1875 L 12.421875 -8.1875 L 14.523438 -2.03125 L 12.738281 -0.210938 L 12.738281 0 L 22.222656 0 L 22.222656 -0.210938 L 14.242188 -23.621094 Z M 6.683594 -8.820312 C 6.753906 -11.058594 7.175781 -13.507812 8.015625 -15.921875 L 8.820312 -18.199219 L 9.027344 -18.199219 L 12.214844 -8.820312 Z M 6.683594 -8.820312 "/></g></g></g><g fill="#f6eceb" fill-opacity="1"><g transform="translate(216.366779, 238.31102)"><g><path d="M 13.261719 -23.410156 C 17.289062 -19.246094 20.472656 -13.019531 20.472656 -7.035156 L 20.472656 -4.96875 L 20.261719 -4.96875 L 8.855469 -23.621094 L 0.523438 -23.621094 L 0.523438 -23.445312 L 2.90625 -19.738281 L 2.90625 0 L 11.023438 0 L 11.023438 -0.210938 C 6.71875 -4.445312 3.710938 -9.589844 3.710938 -16.273438 L 3.710938 -18.582031 L 3.882812 -18.582031 L 15.328125 0.0703125 L 21.242188 0.0703125 L 21.242188 -23.621094 L 13.261719 -23.621094 Z M 13.261719 -23.410156 "/></g></g></g><g fill="#f6eceb" fill-opacity="1"><g transform="translate(71.491373, 287.061017)"><g><path d="M 10.917969 -16.167969 C 6.613281 -18.722656 4.898438 -19.667969 4.898438 -21.136719 C 4.898438 -21.941406 5.496094 -22.5 6.648438 -22.5 C 10.148438 -22.5 15.011719 -19.175781 18.96875 -13.859375 L 19.175781 -13.859375 L 19.175781 -24.007812 L 19.003906 -24.007812 L 16.761719 -22.605469 C 15.46875 -23.410156 13.507812 -24.078125 11.058594 -24.078125 C 6.195312 -24.078125 2.238281 -22.292969 2.167969 -17.324219 C 2.101562 -13.507812 4.585938 -11.722656 7.523438 -9.972656 L 11.582031 -7.488281 C 14.90625 -5.527344 17.777344 -4.199219 17.777344 -2.625 C 17.777344 -1.960938 17.324219 -1.261719 15.746094 -1.261719 C 13.089844 -1.261719 5.84375 -3.324219 1.609375 -11.722656 L 1.363281 -11.6875 L 1.960938 -0.910156 C 5.109375 -0.453125 7.980469 0.699219 11.375 0.699219 C 17.425781 0.699219 20.4375 -3.007812 20.4375 -6.753906 C 20.4375 -9.730469 18.511719 -11.617188 15.117188 -13.613281 Z M 10.917969 -16.167969 "/></g></g></g><g fill="#f6eceb" fill-opacity="1"><g transform="translate(97.806431, 287.061017)"><g><path d="M 11.863281 0.523438 C 13.367188 0.523438 22.710938 -1.574219 22.710938 -11.828125 C 22.710938 -18.652344 18.023438 -24.113281 11.792969 -24.113281 C 10.253906 -24.113281 0.910156 -22.011719 0.910156 -11.757812 C 0.910156 -4.933594 5.527344 0.523438 11.863281 0.523438 Z M 15.957031 -1.539062 C 13.648438 -0.839844 10.429688 -4.621094 7.945312 -11.164062 C 5.460938 -17.707031 5.808594 -21.453125 7.628906 -22.046875 C 9.796875 -22.675781 12.703125 -19.5625 15.152344 -13.4375 C 17.882812 -6.648438 17.847656 -2.167969 15.957031 -1.539062 Z M 15.957031 -1.539062 "/></g></g></g><g fill="#f6eceb" fill-opacity="1"><g transform="translate(126.116034, 287.061017)"><g><path d="M 19.703125 -11.375 C 16.273438 -4.933594 14.382812 -0.628906 10.988281 -0.628906 L 9.832031 -0.628906 L 9.832031 -21.453125 L 11.652344 -23.410156 L 11.652344 -23.621094 L 1.191406 -23.621094 L 1.191406 -23.410156 L 3.007812 -21.453125 L 3.042969 -2.03125 L 1.15625 -0.210938 L 1.15625 0 L 19.914062 0 L 19.914062 -11.375 Z M 19.703125 -11.375 "/></g></g></g><g fill="#f6eceb" fill-opacity="1"><g transform="translate(151.871212, 287.061017)"><g><path d="M 21.59375 -23.621094 L 12.878906 -23.621094 L 12.878906 -23.410156 L 14.769531 -21.59375 L 14.734375 -4.757812 C 14.03125 -3.953125 13.191406 -3.394531 12.039062 -3.394531 C 10.078125 -3.394531 9.378906 -5.144531 9.378906 -7.945312 L 9.378906 -23.621094 L 0.699219 -23.621094 L 0.699219 -23.410156 L 2.554688 -21.59375 L 2.519531 -6.71875 C 2.519531 -1.679688 5.039062 0.523438 8.957031 0.523438 C 9.902344 0.523438 11.375 -0.699219 14.734375 -3.882812 L 14.734375 0 L 23.410156 0 L 23.410156 -0.210938 L 21.558594 -2.03125 Z M 21.59375 -23.621094 "/></g></g></g><g fill="#f6eceb" fill-opacity="1"><g transform="translate(180.845671, 287.061017)"><g><path d="M 21.453125 -23.621094 L 1.050781 -23.621094 L 1.050781 -13.683594 L 1.261719 -13.683594 C 6.613281 -22.957031 6.648438 -22.992188 7.417969 -22.992188 L 7.804688 -22.992188 L 7.804688 -2.167969 L 5.984375 -0.210938 L 5.984375 0 L 16.449219 0 L 16.449219 -0.210938 L 14.628906 -2.167969 L 14.628906 -22.992188 L 15.082031 -22.992188 C 15.679688 -22.992188 15.851562 -22.957031 21.242188 -13.683594 L 21.453125 -13.683594 Z M 21.453125 -23.621094 "/></g></g></g><g fill="#f6eceb" fill-opacity="1"><g transform="translate(207.895565, 287.061017)"><g><path d="M 2.90625 -2.167969 L 1.121094 -0.210938 L 1.121094 0 L 11.546875 0 L 11.546875 -0.210938 L 9.761719 -2.167969 L 9.761719 -21.453125 L 11.546875 -23.410156 L 11.546875 -23.621094 L 1.121094 -23.621094 L 1.121094 -23.410156 L 2.90625 -21.453125 Z M 2.90625 -2.167969 "/></g></g></g><g fill="#f6eceb" fill-opacity="1"><g transform="translate(225.287643, 287.061017)"><g><path d="M 11.863281 0.523438 C 13.367188 0.523438 22.710938 -1.574219 22.710938 -11.828125 C 22.710938 -18.652344 18.023438 -24.113281 11.792969 -24.113281 C 10.253906 -24.113281 0.910156 -22.011719 0.910156 -11.757812 C 0.910156 -4.933594 5.527344 0.523438 11.863281 0.523438 Z M 15.957031 -1.539062 C 13.648438 -0.839844 10.429688 -4.621094 7.945312 -11.164062 C 5.460938 -17.707031 5.808594 -21.453125 7.628906 -22.046875 C 9.796875 -22.675781 12.703125 -19.5625 15.152344 -13.4375 C 17.882812 -6.648438 17.847656 -2.167969 15.957031 -1.539062 Z M 15.957031 -1.539062 "/></g></g></g><g fill="#f6eceb" fill-opacity="1"><g transform="translate(253.597246, 287.061017)"><g><path d="M 13.261719 -23.410156 C 17.289062 -19.246094 20.472656 -13.019531 20.472656 -7.035156 L 20.472656 -4.96875 L 20.261719 -4.96875 L 8.855469 -23.621094 L 0.523438 -23.621094 L 0.523438 -23.445312 L 2.90625 -19.738281 L 2.90625 0 L 11.023438 0 L 11.023438 -0.210938 C 6.71875 -4.445312 3.710938 -9.589844 3.710938 -16.273438 L 3.710938 -18.582031 L 3.882812 -18.582031 L 15.328125 0.0703125 L 21.242188 0.0703125 L 21.242188 -23.621094 L 13.261719 -23.621094 Z M 13.261719 -23.410156 "/></g></g></g><g fill="#f6eceb" fill-opacity="1"><g transform="translate(281.906849, 287.061017)"><g><path d="M 10.917969 -16.167969 C 6.613281 -18.722656 4.898438 -19.667969 4.898438 -21.136719 C 4.898438 -21.941406 5.496094 -22.5 6.648438 -22.5 C 10.148438 -22.5 15.011719 -19.175781 18.96875 -13.859375 L 19.175781 -13.859375 L 19.175781 -24.007812 L 19.003906 -24.007812 L 16.761719 -22.605469 C 15.46875 -23.410156 13.507812 -24.078125 11.058594 -24.078125 C 6.195312 -24.078125 2.238281 -22.292969 2.167969 -17.324219 C 2.101562 -13.507812 4.585938 -11.722656 7.523438 -9.972656 L 11.582031 -7.488281 C 14.90625 -5.527344 17.777344 -4.199219 17.777344 -2.625 C 17.777344 -1.960938 17.324219 -1.261719 15.746094 -1.261719 C 13.089844 -1.261719 5.84375 -3.324219 1.609375 -11.722656 L 1.363281 -11.6875 L 1.960938 -0.910156 C 5.109375 -0.453125 7.980469 0.699219 11.375 0.699219 C 17.425781 0.699219 20.4375 -3.007812 20.4375 -6.753906 C 20.4375 -9.730469 18.511719 -11.617188 15.117188 -13.613281 Z M 10.917969 -16.167969 "/></g></g></g></svg>